<?xml version="1.0" encoding="UTF-8" standalone="no"?>
<svg
   width="400"
   height="400"
   viewBox="0 0 400 400"
   version="1.1"
   id="svg7"
   xmlns="http://www.w3.org/2000/svg"
   xmlns:svg="http://www.w3.org/2000/svg">
  <!-- Tło koła symbolizujące globalny zasięg -->
  <circle
     cx="200"
     cy="200"
     r="180"
     fill="url(#gradient-bg)"
     stroke="#0056b3"
     stroke-width="6"
     id="circle1" />
  <!-- Gradient tła -->
  <defs
     id="defs2">
    <linearGradient
       id="gradient-bg"
       x1="0%"
       y1="0%"
       x2="100%"
       y2="100%">
      <stop
         offset="0%"
         style="stop-color:#e6f7ff;stop-opacity:1"
         id="stop1" />
      <stop
         offset="100%"
         style="stop-color:#cceeff;stop-opacity:1"
         id="stop2" />
    </linearGradient>
  </defs>
  <!-- Kula ziemska za sercem -->
  <circle
     cx="200"
     cy="200"
     r="100"
     fill="url(#earth-gradient)"
     id="circle2" />
  <defs
     id="defs4">
    <radialGradient
       id="earth-gradient"
       cx="50%"
       cy="50%"
       r="50%">
      <stop
         offset="0%"
         style="stop-color:#8cc3ff;stop-opacity:1"
         id="stop3" />
      <stop
         offset="100%"
         style="stop-color:#6baed6;stop-opacity:1"
         id="stop4" />
    </radialGradient>
  </defs>
  <path
     d="M150 200 q50 -50 100 0 q50 50 0 100 q-50 50 -100 0 q-50 -50 0 -100z"
     fill="#4a90e2"
     id="path4" />
  <path
     d="M200 150 q-30 50 -80 50 q50 30 80 80 q30 -50 80 -80 q-50 -30 -80 -50z"
     fill="#357abf"
     id="path5" />
  <!-- Symbol serca symbolizujący empatię -->
  <path
     d="m 200,200.75505 q -40,-40 -80,0 -40.000001,40 0,80 l 80,80 80,-80 q 40,-40 0,-80 -40,-40 -80,0 z"
     fill="url(#heart-gradient)"
     id="path6"
     style="fill:url(#heart-gradient)" />
  <defs
     id="defs7">
    <linearGradient
       id="heart-gradient"
       x1="94.86833"
       y1="189.73666"
       x2="284.60499"
       y2="379.47332"
       gradientTransform="scale(1.0540926,0.9486833)"
       gradientUnits="userSpaceOnUse">
      <stop
         offset="0%"
         style="stop-color:#ff5252;stop-opacity:1"
         id="stop6" />
      <stop
         offset="100%"
         style="stop-color:#ff1744;stop-opacity:1"
         id="stop7" />
    </linearGradient>
  </defs>
  <!-- Tekst skrótowy SKPH -->
  <text
     x="200.97266"
     y="363.34125"
     font-family="Arial, sans-serif"
     font-size="48px"
     fill="#0056b3"
     text-anchor="middle"
     font-weight="bold"
     id="text7">SKPH</text>
</svg>
